<svg width="192" height="192" viewBox="0 0 192 192" xmlns="http://www.w3.org/2000/svg">
  <defs>
    <linearGradient id="bg" x1="0%" y1="0%" x2="100%" y2="100%">
      <stop offset="0%" style="stop-color:#0f0c29"/>
      <stop offset="50%" style="stop-color:#302b63"/>
      <stop offset="100%" style="stop-color:#24243e"/>
    </linearGradient>
    <linearGradient id="heart" x1="0%" y1="0%" x2="100%" y2="100%">
      <stop offset="0%" style="stop-color:#e8b4b8"/>
      <stop offset="100%" style="stop-color:#ff6b9d"/>
    </linearGradient>
  </defs>
  <rect width="192" height="192" rx="42" fill="url(#bg)"/>
  <circle cx="48" cy="48" r="2" fill="white" opacity="0.6"/>
  <circle cx="145" cy="55" r="1.5" fill="white" opacity="0.5"/>
  <circle cx="158" cy="130" r="2" fill="white" opacity="0.7"/>
  <circle cx="35" cy="140" r="1.5" fill="white" opacity="0.4"/>
  <circle cx="96" cy="35" r="1" fill="white" opacity="0.5"/>
  <circle cx="70" cy="160" r="1.2" fill="white" opacity="0.6"/>
  <circle cx="125" cy="155" r="1" fill="white" opacity="0.4"/>
  <path d="M96 145 C65 118, 42 98, 42 75 C42 58, 56 46, 72 46 C83 46, 91 53, 96 62 C101 53, 109 46, 120 46 C136 46, 150 58, 150 75 C150 98, 127 118, 96 145Z" fill="url(#heart)"/>
  <ellipse cx="78" cy="72" rx="8" ry="6" fill="white" opacity="0.3"/>
</svg>
